<?xml version="1.0" encoding="UTF-8"?><svg id="barcode_app" xmlns="http://www.w3.org/2000/svg" xmlns:xlink="http://www.w3.org/1999/xlink" viewBox="0 0 190.7 197.61"><defs><style>.cls-1{fill:url(#Naamloos_verloop_6);}.cls-2{fill:#3a3a3a;}.cls-3{fill:url(#Naamloos_verloop_7);}.cls-4{fill:url(#Naamloos_verloop_19);}.cls-5{fill:#25b4b1;}</style><linearGradient id="Naamloos_verloop_6" x1="156.63" y1="49.14" x2="30.8" y2="49.14" gradientUnits="userSpaceOnUse"><stop offset="0" stop-color="#25b4b1"/><stop offset="1" stop-color="#9460a4"/></linearGradient><linearGradient id="Naamloos_verloop_19" x1="156.63" y1="50.4" x2="30.8" y2="50.4" gradientUnits="userSpaceOnUse"><stop offset="0" stop-color="#25b4b1"/><stop offset=".99" stop-color="#9460a4"/></linearGradient><linearGradient id="Naamloos_verloop_7" x1="78.69" y1="50.4" x2="158.5" y2="50.4" gradientUnits="userSpaceOnUse"><stop offset="0" stop-color="#3a3a3a"/><stop offset="1" stop-color="#3a3a3a" stop-opacity="0"/></linearGradient></defs><g><path class="cls-2" d="M12.44,137.64c2.29,0,4.31,.56,6.08,1.69,1.77,1.13,3.17,2.67,4.21,4.64,1.04,1.97,1.56,4.23,1.56,6.79s-.52,4.83-1.56,6.81c-1.04,1.98-2.46,3.55-4.24,4.69-1.78,1.14-3.78,1.72-6,1.72-1.18,0-2.3-.18-3.36-.53s-2.03-.83-2.9-1.44c-.87-.61-1.65-1.32-2.32-2.14-.67-.82-1.21-1.71-1.61-2.65l.91-.71v15.69c0,.4-.14,.76-.43,1.06-.29,.3-.65,.45-1.09,.45s-.81-.15-1.11-.45c-.3-.3-.45-.66-.45-1.06v-32.9c0-.44,.14-.81,.43-1.11,.29-.3,.66-.45,1.14-.45,.44,0,.8,.15,1.09,.45,.29,.3,.43,.67,.43,1.11v5.45l-.71-.4c.34-1.04,.83-1.98,1.49-2.8s1.42-1.53,2.3-2.12c.87-.59,1.83-1.03,2.88-1.34,1.04-.3,2.14-.45,3.28-.45Zm-.25,2.83c-1.82,0-3.41,.45-4.79,1.34-1.38,.89-2.46,2.1-3.25,3.63-.79,1.53-1.19,3.31-1.19,5.32s.39,3.77,1.19,5.35c.79,1.58,1.87,2.82,3.25,3.71,1.38,.89,2.98,1.34,4.79,1.34s3.36-.45,4.72-1.34c1.36-.89,2.44-2.13,3.23-3.71,.79-1.58,1.19-3.36,1.19-5.35s-.4-3.75-1.19-5.3c-.79-1.55-1.87-2.77-3.23-3.66-1.36-.89-2.94-1.34-4.72-1.34Z"/><path class="cls-2" d="M54.37,150.71c0,2.56-.56,4.85-1.69,6.89-1.13,2.04-2.65,3.63-4.57,4.79-1.92,1.16-4.09,1.74-6.51,1.74s-4.55-.58-6.48-1.74c-1.94-1.16-3.47-2.76-4.59-4.79-1.13-2.03-1.69-4.33-1.69-6.89s.56-4.89,1.69-6.91c1.13-2.02,2.66-3.62,4.59-4.79,1.93-1.18,4.09-1.77,6.48-1.77s4.59,.59,6.51,1.77c1.92,1.18,3.44,2.77,4.57,4.79,1.13,2.02,1.69,4.32,1.69,6.91Zm-3.08,0c0-2.05-.42-3.88-1.26-5.47-.84-1.6-1.99-2.85-3.46-3.76-1.46-.91-3.12-1.36-4.97-1.36s-3.51,.45-4.97,1.36c-1.46,.91-2.62,2.16-3.48,3.76-.86,1.6-1.29,3.42-1.29,5.47s.43,3.87,1.29,5.45c.86,1.58,2.02,2.83,3.48,3.76,1.46,.93,3.12,1.39,4.97,1.39s3.51-.46,4.97-1.39c1.46-.92,2.61-2.18,3.46-3.76,.84-1.58,1.26-3.4,1.26-5.45Z"/><path class="cls-2" d="M91.15,137.29c.4,0,.76,.14,1.09,.4,.32,.27,.48,.64,.48,1.11,0,.1-.02,.22-.05,.35-.03,.13-.07,.25-.1,.35l-7.77,23.16c-.13,.3-.35,.55-.63,.73-.29,.18-.6,.26-.93,.23-.57-.03-1.03-.35-1.36-.96l-7.06-16.75,.91,.2-6.31,16.55c-.27,.61-.72,.92-1.36,.96-.3,.03-.61-.04-.91-.23-.3-.18-.51-.43-.61-.73l-8.02-23.16c-.07-.27-.1-.5-.1-.71,0-.4,.14-.76,.43-1.06,.29-.3,.66-.45,1.13-.45,.3,0,.58,.09,.83,.25,.25,.17,.43,.42,.53,.76l7.16,21.5-.96-.05,6.51-16.4c.27-.64,.74-.96,1.41-.96,.34,0,.62,.08,.86,.25,.24,.17,.42,.4,.55,.71l6.91,16.45-1.16,.05,7.11-21.55c.23-.67,.71-1.01,1.41-1.01Z"/><path class="cls-2" d="M109.97,164.13c-2.62,0-4.92-.55-6.89-1.67-1.97-1.11-3.51-2.66-4.62-4.64-1.11-1.98-1.67-4.31-1.67-6.96,0-2.86,.56-5.3,1.69-7.32,1.13-2.02,2.59-3.57,4.39-4.67,1.8-1.09,3.71-1.64,5.73-1.64,1.48,0,2.92,.26,4.31,.78,1.4,.52,2.63,1.3,3.71,2.32,1.08,1.03,1.95,2.28,2.62,3.76,.67,1.48,1.03,3.2,1.06,5.15,0,.4-.15,.75-.45,1.03-.3,.29-.66,.43-1.06,.43h-20.23l-.6-2.72h19.83l-.66,.6v-1.01c-.13-1.58-.64-2.92-1.51-4.01-.88-1.09-1.93-1.93-3.15-2.52-1.23-.59-2.52-.88-3.86-.88-1.01,0-2.04,.2-3.1,.61s-2.02,1.03-2.88,1.89c-.86,.86-1.56,1.95-2.09,3.28-.54,1.33-.81,2.9-.81,4.72,0,1.99,.4,3.78,1.21,5.4,.81,1.61,1.97,2.89,3.48,3.84,1.51,.94,3.35,1.41,5.5,1.41,1.14,0,2.19-.17,3.13-.51,.94-.34,1.77-.78,2.5-1.34,.72-.56,1.32-1.14,1.79-1.74,.34-.3,.69-.45,1.06-.45s.68,.13,.93,.4c.25,.27,.38,.57,.38,.91,0,.4-.17,.76-.5,1.06-1.01,1.21-2.32,2.26-3.94,3.15-1.61,.89-3.38,1.34-5.3,1.34Z"/><path class="cls-2" d="M128.09,163.63c-.47,0-.85-.15-1.14-.45s-.43-.66-.43-1.06v-22.61c0-.4,.15-.76,.45-1.06s.67-.45,1.11-.45,.8,.15,1.09,.45c.29,.3,.43,.66,.43,1.06v7.57l-.76,.15c.1-1.18,.39-2.35,.88-3.51,.49-1.16,1.15-2.23,1.99-3.2,.84-.98,1.84-1.77,3-2.37,1.16-.61,2.46-.91,3.91-.91,.61,0,1.19,.13,1.77,.38s.86,.66,.86,1.24c0,.51-.13,.89-.4,1.16-.27,.27-.59,.4-.96,.4-.3,0-.63-.08-.98-.25s-.82-.25-1.39-.25c-.94,0-1.88,.28-2.83,.83-.94,.56-1.8,1.3-2.57,2.25s-1.39,1.99-1.84,3.15c-.45,1.16-.68,2.33-.68,3.51v12.46c0,.4-.15,.76-.45,1.06-.3,.3-.66,.45-1.06,.45Z"/><path class="cls-2" d="M166.33,137.85c.44,0,.8,.15,1.09,.45,.29,.3,.43,.67,.43,1.11v22.71c0,.4-.15,.76-.45,1.06s-.66,.45-1.06,.45c-.47,0-.85-.15-1.14-.45-.29-.3-.43-.66-.43-1.06v-6l.91-.35c0,.91-.26,1.86-.78,2.85-.52,.99-1.24,1.9-2.14,2.72-.91,.83-1.98,1.5-3.2,2.02-1.23,.52-2.57,.78-4.01,.78-2.25,0-4.28-.59-6.08-1.77s-3.21-2.79-4.24-4.84c-1.03-2.05-1.54-4.36-1.54-6.91s.52-4.94,1.56-6.94c1.04-2,2.46-3.57,4.24-4.72,1.78-1.14,3.78-1.72,6-1.72,1.45,0,2.8,.25,4.06,.76,1.26,.5,2.36,1.19,3.3,2.07s1.67,1.88,2.19,3c.52,1.13,.78,2.3,.78,3.51l-1.06-.76v-6.41c0-.44,.14-.81,.43-1.11,.29-.3,.66-.45,1.14-.45Zm-10.5,23.46c1.78,0,3.36-.46,4.74-1.39,1.38-.92,2.46-2.2,3.25-3.83,.79-1.63,1.19-3.46,1.19-5.47s-.4-3.73-1.19-5.32c-.79-1.6-1.88-2.86-3.25-3.78-1.38-.92-2.96-1.39-4.74-1.39s-3.32,.45-4.72,1.34c-1.4,.89-2.49,2.13-3.28,3.71-.79,1.58-1.19,3.4-1.19,5.45s.39,3.84,1.16,5.47c.77,1.63,1.86,2.91,3.25,3.83,1.4,.93,2.99,1.39,4.77,1.39Z"/><path class="cls-2" d="M179.1,162.12c0,.4-.15,.76-.45,1.06-.3,.3-.66,.45-1.06,.45-.44,0-.8-.15-1.09-.45s-.43-.66-.43-1.06v-34.31c0-.4,.15-.76,.45-1.06s.66-.45,1.06-.45c.44,0,.8,.15,1.09,.45,.29,.3,.43,.66,.43,1.06v34.31Z"/><path class="cls-2" d="M190.7,162.12c0,.4-.15,.76-.45,1.06-.3,.3-.66,.45-1.06,.45-.44,0-.8-.15-1.09-.45s-.43-.66-.43-1.06v-34.31c0-.4,.15-.76,.45-1.06s.66-.45,1.06-.45c.44,0,.8,.15,1.09,.45,.29,.3,.43,.66,.43,1.06v34.31Z"/></g><g><path class="cls-5" d="M31.52,179.91c.91,.58,1.63,1.38,2.15,2.4,.52,1.03,.77,2.18,.77,3.47s-.26,2.43-.77,3.47c-.52,1.04-1.23,1.86-2.13,2.45-.91,.59-1.92,.89-3.04,.89-.97,0-1.86-.24-2.68-.72-.82-.48-1.49-1.12-1.99-1.92v1.68c0,.22-.07,.41-.22,.56s-.33,.23-.55,.23-.4-.08-.55-.23c-.14-.15-.22-.34-.22-.56v-17.3c0-.22,.07-.4,.22-.55,.14-.14,.33-.22,.55-.22s.4,.07,.55,.22c.14,.14,.22,.33,.22,.55v7.5c.46-.83,1.1-1.5,1.93-2.01,.83-.51,1.74-.76,2.72-.76,1.12,0,2.13,.29,3.05,.86Zm-.8,10.55c.7-.47,1.25-1.12,1.65-1.94,.4-.82,.6-1.73,.6-2.73s-.2-1.93-.6-2.73-.95-1.44-1.65-1.89c-.7-.46-1.5-.69-2.38-.69s-1.7,.22-2.41,.67c-.71,.45-1.26,1.08-1.65,1.89s-.58,1.73-.58,2.74,.2,1.94,.6,2.76c.4,.82,.95,1.47,1.65,1.93,.7,.47,1.5,.7,2.4,.7s1.67-.24,2.38-.71Z"/><path class="cls-5" d="M48.69,179.58c.14,.15,.22,.34,.22,.56v11.43c0,.22-.07,.4-.22,.55-.14,.14-.33,.22-.55,.22s-.4-.07-.55-.22c-.14-.14-.22-.33-.22-.55v-1.7c-.42,.76-1.06,1.41-1.91,1.93-.85,.53-1.77,.79-2.77,.79-1.13,0-2.16-.3-3.06-.89s-1.62-1.41-2.13-2.44c-.52-1.03-.77-2.19-.77-3.48s.26-2.44,.79-3.47c.52-1.02,1.24-1.83,2.15-2.4,.91-.58,1.91-.86,3.01-.86,1.02,0,1.95,.25,2.8,.74,.85,.49,1.48,1.14,1.91,1.93v-1.58c0-.22,.07-.41,.22-.56,.14-.15,.33-.23,.55-.23s.4,.08,.55,.23Zm-3.46,10.89c.7-.47,1.25-1.11,1.65-1.93,.4-.82,.6-1.74,.6-2.76s-.2-1.88-.6-2.69c-.4-.81-.95-1.45-1.65-1.92-.7-.47-1.5-.7-2.38-.7s-1.67,.23-2.38,.69c-.7,.46-1.25,1.09-1.65,1.89s-.6,1.71-.6,2.73,.19,1.94,.58,2.76c.39,.82,.94,1.47,1.64,1.93,.7,.47,1.5,.7,2.4,.7s1.67-.23,2.38-.7Z"/><path class="cls-5" d="M59.88,179.25c.27,.14,.41,.34,.41,.61,0,.24-.07,.43-.2,.57-.14,.14-.3,.22-.48,.22-.08,0-.25-.04-.5-.13s-.48-.13-.7-.13c-.63,0-1.25,.24-1.87,.72-.62,.48-1.13,1.11-1.52,1.87-.4,.76-.6,1.53-.6,2.31v6.28c0,.22-.07,.4-.22,.55-.14,.14-.33,.22-.55,.22s-.4-.07-.55-.22c-.14-.14-.22-.33-.22-.55v-11.38c0-.22,.07-.4,.22-.55s.33-.22,.55-.22,.4,.07,.55,.22c.14,.14,.22,.33,.22,.55v2.24c.39-.96,.98-1.77,1.77-2.4,.79-.63,1.72-.96,2.78-.98,.34,0,.64,.07,.91,.2Z"/><path class="cls-5" d="M69.96,179.32c.69,.18,1.24,.42,1.65,.72,.42,.31,.62,.64,.62,.99,0,.19-.06,.36-.19,.51s-.28,.23-.47,.23c-.17,0-.31-.03-.42-.1-.11-.07-.23-.17-.37-.3-.22-.22-.43-.38-.64-.48-.25-.12-.59-.22-1-.29s-.86-.11-1.33-.11c-.93,0-1.78,.24-2.55,.71-.77,.47-1.38,1.12-1.82,1.93s-.66,1.71-.66,2.69,.21,1.93,.64,2.74c.42,.81,1.01,1.45,1.77,1.92,.75,.47,1.61,.7,2.58,.7,.61,0,1.1-.05,1.46-.15s.72-.25,1.08-.43c.12-.07,.32-.22,.61-.46,.14-.12,.25-.21,.36-.27,.1-.06,.21-.09,.33-.09,.2,0,.36,.06,.48,.19,.12,.13,.18,.29,.18,.5,0,.29-.2,.6-.61,.93-.41,.33-.97,.61-1.68,.85s-1.5,.36-2.36,.36c-1.24,0-2.34-.29-3.3-.88-.97-.58-1.72-1.39-2.25-2.43s-.8-2.19-.8-3.48,.27-2.37,.81-3.39c.54-1.02,1.3-1.84,2.29-2.45,.98-.61,2.11-.91,3.38-.91,.8,0,1.54,.09,2.22,.27Z"/><path class="cls-5" d="M86.33,189.29c-.56,1.03-1.33,1.84-2.31,2.43-.98,.58-2.08,.88-3.28,.88s-2.3-.29-3.28-.88c-.98-.58-1.75-1.39-2.31-2.43s-.84-2.19-.84-3.46,.28-2.42,.84-3.46c.56-1.03,1.33-1.85,2.31-2.44,.98-.59,2.07-.89,3.28-.89s2.3,.3,3.28,.89c.98,.59,1.75,1.41,2.31,2.44,.56,1.03,.84,2.19,.84,3.46s-.28,2.42-.84,3.46Zm-1.32-6.2c-.42-.81-1.01-1.45-1.77-1.92-.75-.47-1.59-.7-2.5-.7s-1.75,.23-2.49,.7c-.75,.47-1.33,1.11-1.77,1.92-.43,.81-.65,1.73-.65,2.74s.22,1.91,.65,2.72c.43,.81,1.02,1.45,1.77,1.92,.75,.47,1.58,.7,2.49,.7s1.75-.23,2.5-.69c.75-.46,1.34-1.09,1.77-1.91,.42-.81,.64-1.73,.64-2.74s-.21-1.93-.64-2.74Z"/><path class="cls-5" d="M101.39,173.75c.14,.14,.22,.33,.22,.55v17.28c0,.22-.07,.4-.22,.55s-.33,.22-.55,.22-.4-.07-.55-.22c-.14-.14-.22-.33-.22-.55v-1.78c-.42,.78-1.05,1.44-1.89,1.98s-1.77,.81-2.78,.81c-1.12,0-2.13-.29-3.04-.88-.91-.58-1.62-1.39-2.15-2.43-.53-1.03-.79-2.19-.79-3.48s.26-2.42,.79-3.46c.52-1.03,1.24-1.84,2.15-2.43,.91-.58,1.91-.88,3.01-.88,1,0,1.92,.25,2.77,.75,.85,.5,1.49,1.15,1.93,1.94v-7.45c0-.22,.07-.4,.22-.55,.14-.14,.33-.22,.55-.22s.4,.07,.55,.22Zm-3.46,16.73c.7-.46,1.25-1.1,1.65-1.92,.4-.82,.6-1.74,.6-2.76s-.2-1.91-.6-2.72-.95-1.45-1.65-1.92c-.7-.47-1.5-.7-2.38-.7s-1.67,.23-2.38,.7c-.7,.47-1.25,1.11-1.65,1.92s-.6,1.72-.6,2.72,.2,1.93,.6,2.74c.4,.81,.95,1.45,1.65,1.92,.7,.47,1.49,.7,2.38,.7s1.67-.23,2.38-.69Z"/><path class="cls-5" d="M116.34,185.62c-.15,.14-.33,.22-.53,.22h-9.61c0,1.02,.21,1.93,.62,2.73,.42,.8,1.01,1.44,1.78,1.91s1.68,.7,2.73,.7c.81,0,1.54-.17,2.19-.51s1.16-.77,1.55-1.3c.19-.15,.36-.23,.53-.23s.32,.07,.46,.2,.2,.29,.2,.46c0,.19-.08,.36-.25,.53-.54,.66-1.22,1.2-2.05,1.63-.82,.42-1.69,.63-2.6,.63-1.3,0-2.46-.28-3.46-.84-1-.56-1.78-1.34-2.34-2.35-.56-1.01-.84-2.17-.84-3.49,0-1.39,.28-2.6,.83-3.65,.55-1.04,1.28-1.84,2.2-2.39,.91-.55,1.89-.83,2.92-.83s1.97,.24,2.86,.71c.89,.47,1.61,1.17,2.17,2.08,.56,.92,.85,2,.86,3.25,0,.2-.08,.38-.23,.52Zm-8.4-4.08c-.84,.68-1.38,1.65-1.61,2.92h8.67v-.2c-.08-.76-.34-1.43-.76-2-.42-.57-.95-1-1.59-1.3-.63-.3-1.29-.44-1.97-.44-.98,0-1.89,.34-2.73,1.02Z"/><path class="cls-5" d="M137.75,179.58c.14,.15,.22,.34,.22,.56v11.43c0,.22-.07,.4-.22,.55-.14,.14-.33,.22-.55,.22s-.4-.07-.55-.22c-.14-.14-.22-.33-.22-.55v-1.7c-.42,.76-1.06,1.41-1.91,1.93-.85,.53-1.77,.79-2.77,.79-1.13,0-2.16-.3-3.06-.89s-1.62-1.41-2.13-2.44-.77-2.19-.77-3.48,.26-2.44,.79-3.47c.53-1.02,1.24-1.83,2.15-2.4,.91-.58,1.91-.86,3.01-.86,1.02,0,1.95,.25,2.8,.74,.85,.49,1.48,1.14,1.91,1.93v-1.58c0-.22,.07-.41,.22-.56s.33-.23,.55-.23,.4,.08,.55,.23Zm-3.46,10.89c.7-.47,1.25-1.11,1.65-1.93,.4-.82,.6-1.74,.6-2.76s-.2-1.88-.6-2.69c-.4-.81-.95-1.45-1.65-1.92-.7-.47-1.5-.7-2.38-.7s-1.67,.23-2.38,.69c-.7,.46-1.25,1.09-1.65,1.89-.4,.8-.6,1.71-.6,2.73s.19,1.94,.58,2.76c.39,.82,.94,1.47,1.64,1.93,.7,.47,1.5,.7,2.4,.7s1.67-.23,2.38-.7Z"/><path class="cls-5" d="M151.18,180.11c.91,.57,1.63,1.36,2.15,2.36,.52,1.01,.78,2.14,.78,3.39s-.26,2.41-.78,3.42-1.23,1.8-2.13,2.38c-.91,.58-1.92,.86-3.04,.86-.98,0-1.88-.23-2.71-.7s-1.48-1.09-1.97-1.87v6.71c0,.22-.07,.4-.22,.55-.14,.14-.33,.22-.55,.22s-.4-.07-.55-.22c-.14-.14-.22-.33-.22-.55v-16.57c0-.22,.07-.41,.22-.56,.14-.15,.33-.23,.55-.23s.4,.08,.55,.23c.14,.15,.22,.34,.22,.56v1.73c.44-.8,1.08-1.42,1.91-1.88,.83-.46,1.75-.69,2.74-.69,1.12,0,2.13,.28,3.05,.85Zm-.8,10.32c.7-.45,1.25-1.07,1.65-1.87,.4-.8,.6-1.69,.6-2.69s-.2-1.87-.6-2.66c-.4-.79-.95-1.41-1.65-1.85-.7-.45-1.5-.67-2.38-.67s-1.7,.22-2.41,.66c-.71,.44-1.26,1.05-1.65,1.84s-.58,1.68-.58,2.68,.2,1.9,.58,2.69c.39,.8,.94,1.42,1.65,1.87,.71,.45,1.52,.67,2.41,.67s1.67-.22,2.38-.67Z"/><path class="cls-5" d="M166.48,180.11c.91,.57,1.63,1.36,2.15,2.36,.52,1.01,.78,2.14,.78,3.39s-.26,2.41-.78,3.42-1.23,1.8-2.13,2.38c-.91,.58-1.92,.86-3.04,.86-.98,0-1.88-.23-2.71-.7s-1.48-1.09-1.97-1.87v6.71c0,.22-.07,.4-.22,.55-.14,.14-.33,.22-.55,.22s-.4-.07-.55-.22c-.14-.14-.22-.33-.22-.55v-16.57c0-.22,.07-.41,.22-.56,.14-.15,.33-.23,.55-.23s.4,.08,.55,.23c.14,.15,.22,.34,.22,.56v1.73c.44-.8,1.08-1.42,1.91-1.88,.83-.46,1.75-.69,2.74-.69,1.12,0,2.13,.28,3.05,.85Zm-.8,10.32c.7-.45,1.25-1.07,1.65-1.87,.4-.8,.6-1.69,.6-2.69s-.2-1.87-.6-2.66c-.4-.79-.95-1.41-1.65-1.85-.7-.45-1.5-.67-2.38-.67s-1.7,.22-2.41,.66c-.71,.44-1.26,1.05-1.65,1.84s-.58,1.68-.58,2.68,.2,1.9,.58,2.69c.39,.8,.94,1.42,1.65,1.87,.71,.45,1.52,.67,2.41,.67s1.67-.22,2.38-.67Z"/></g><path class="cls-1" d="M101.66,.72c5.75,0,10.41,4.66,10.41,10.41v27.77c0,5.75-4.66,10.41-10.41,10.41h-9.29l-25.36,43.09c-2.91,4.97-9.29,6.62-14.25,3.71l-11.59-6.83c-4.94-2.91-6.61-9.26-3.71-14.21l15.61-26.75c-10.04-2.99-17.36-12.3-17.36-23.3C35.7,11.6,46.58,.72,60,.72h41.66Z"/><path class="cls-4" d="M149.92,1.8c2.89,0,5.21,2.33,5.21,5.21v3.47c0,2.87-2.32,5.21-5.21,5.21h-24.3c-2.89,0-5.21-2.33-5.21-5.21v-3.47c0-2.87,2.32-5.21,5.21-5.21h24.3Zm-29.51,39.92c0-2.89,2.32-5.21,5.21-5.21h24.3c2.89,0,5.21,2.32,5.21,5.21v3.47c0,2.89-2.32,5.21-5.21,5.21h-24.3c-2.89,0-5.21-2.32-5.21-5.21v-3.47Zm29.51,43.39c2.89,0,5.21,2.32,5.21,5.21v3.47c0,2.89-2.32,5.21-5.21,5.21h-24.3c-2.89,0-5.21-2.32-5.21-5.21v-3.47c0-2.89,2.32-5.21,5.21-5.21h24.3Zm-29.51-59.01c0-1.91,1.56-3.47,3.47-3.47h27.77c1.91,0,3.47,1.56,3.47,3.47s-1.56,3.47-3.47,3.47h-27.77c-1.91,0-3.47-1.56-3.47-3.47Zm31.24,31.24c1.91,0,3.47,1.56,3.47,3.47s-1.56,3.47-3.47,3.47h-27.77c-1.91,0-3.47-1.56-3.47-3.47s1.56-3.47,3.47-3.47h27.77Zm-31.24,17.36c0-1.91,1.56-3.47,3.47-3.47h27.77c1.91,0,3.47,1.56,3.47,3.47s-1.56,3.47-3.47,3.47h-27.77c-1.91,0-3.47-1.56-3.47-3.47Z"/><path class="cls-3" d="M149.92,1.8c2.89,0,5.21,2.33,5.21,5.21v3.47c0,2.87-2.32,5.21-5.21,5.21h-24.3c-2.89,0-5.21-2.33-5.21-5.21v-3.47c0-2.87,2.32-5.21,5.21-5.21h24.3Zm-29.51,39.92c0-2.89,2.32-5.21,5.21-5.21h24.3c2.89,0,5.21,2.32,5.21,5.21v3.47c0,2.89-2.32,5.21-5.21,5.21h-24.3c-2.89,0-5.21-2.32-5.21-5.21v-3.47Zm29.51,43.39c2.89,0,5.21,2.32,5.21,5.21v3.47c0,2.89-2.32,5.21-5.21,5.21h-24.3c-2.89,0-5.21-2.32-5.21-5.21v-3.47c0-2.89,2.32-5.21,5.21-5.21h24.3Zm-29.51-59.01c0-1.91,1.56-3.47,3.47-3.47h27.77c1.91,0,3.47,1.56,3.47,3.47s-1.56,3.47-3.47,3.47h-27.77c-1.91,0-3.47-1.56-3.47-3.47Zm31.24,31.24c1.91,0,3.47,1.56,3.47,3.47s-1.56,3.47-3.47,3.47h-27.77c-1.91,0-3.47-1.56-3.47-3.47s1.56-3.47,3.47-3.47h27.77Zm-31.24,17.36c0-1.91,1.56-3.47,3.47-3.47h27.77c1.91,0,3.47,1.56,3.47,3.47s-1.56,3.47-3.47,3.47h-27.77c-1.91,0-3.47-1.56-3.47-3.47Z"/></svg>