<svg xmlns="http://www.w3.org/2000/svg" viewBox="0 0 384 512"><path d="M325 512c-88.5 0-177 0-265 0c-1.9-.3-3.8-.5-5.7-.8c-14.1-2.4-26.1-8.7-36-19c-8.9-9.3-14.5-20.4-16.7-33.1c-.4-2.1-.6-4.2-.9-6.3C0 322 0 190 0 59.3c.1-.3 .2-.5 .2-.8c.7-8.1 2.7-15.8 6.5-23c10.9-20.6 28-32.4 51.2-35.1c1.5-.2 3-.3 4.5-.4C113 0 164 0 215 0c.3 .1 .6 .2 .9 .2c16.6 .7 30.9 6.9 42.7 18.6c35.7 35.5 71.3 71.2 107 107c9.4 9.4 15.2 20.8 17.5 33.9c.4 2.1 .6 4.1 .9 6.2c0 95.7 0 191 0 287c-.3 1.9-.5 3.9-.8 5.8c-2.4 14.1-8.8 26.2-19.2 36c-9.3 8.8-20.3 14.3-32.9 16.5C329 511 327 512 325 512zM192 32.1c-.6 0-1 0-1.5 0c-41.7 0-83.5 0-125 0c-1.4 0-2.9 .1-4.3 .2C44.7 33.8 32 47.7 32 64c0 128 0 256 0 384c0 1.1 0 2.2 .2 3.3C34 468 47.8 480 64.1 480c85.1 0 170 0 255 0c1.7 0 3.4-.1 5.1-.3c15.2-1.9 27.4-15.7 27.4-31.2c0-84.9 0-170 0-255c0-.5 0-.9 0-1.5c-.7 0-1.2 0-1.8 0c-36.9 0-73.7 0-111 0c-2.2 0-4.5-.2-6.7-.5c-10.8-1.7-20-6.4-27.5-14.3c-8.6-9-13.2-19.8-13.2-32.2c-.1-37.1 0-74.1 0-111C192 33.3 192 32.8 192 32.1zM224 34.3c0 .6 0 1.1 0 1.6c0 36 0 72 0 108c0 9.2 7 16.2 16.3 16.2c36 0 72 0 108 0c.5 0 .9 0 1.3 0c0-.3 0-.4 0-.4c0-.2-.1-.3-.1-.5c-1.6-4.6-4.2-8.5-7.6-11.9c-13.8-13.7-27.5-27.5-41.3-41.3c-21.3-21.3-42.5-42.5-63.8-63.8c-.9-.9-1.9-1.8-2.9-2.7C231 37.2 228 35.6 224 34.3zM119 343c0-4.8 0-9.6 0-14.4c-1.2-.2-2.4-.3-3.6-.6c-7.4-1.9-12-8.7-11.1-16.5c.8-7.1 7.2-12.7 14.6-12.8c1.8 0 3.5 0 5.3 0c.8 0 1.2-.2 1.5-1c5.7-15.8 14.6-29.6 26.6-41.2c16.7-16.3 36.7-26.4 59.7-30.3c6-1 12-1.5 18-1.5c7.4 0 14.8 0 22.2 0c8.1 0 14 5.4 14.9 13.6c.8 7.3-4.1 14.1-11.6 15.8c-1.2 .3-2.5 .4-3.8 .4c-8.3 0-16.6-.2-24.9 .1c-19.4 .8-36.3 7.7-50.8 20.5c-7.2 6.4-13 13.8-17.6 22.3c-.2 .3-.3 .6-.5 1c0 .1 0 .1 0 .3c.5 0 .9 0 1.4 0c25.9 0 51.8 0 77.7 0c8.9 0 15.8 7.2 15.2 15.8c-.5 7.9-7 14-14.9 14c-28.9 0-57.7 0-86.6 0c-.5 0-1 0-1.7 0c-.5 4.9-.5 9.7 0 14.6c.6 0 1.1 0 1.6 0c28.8 0 57.5 0 86.3 0c7.2 0 13.2 4.5 14.9 11.2c2.4 9.5-4.7 18.6-14.5 18.6c-26 0-51.9 0-77.9 0c-.5 0-1 0-1.7 0c.2 .5 .4 .9 .6 1.2c13.1 23.2 32.6 37.3 58.9 41.9c4.3 .7 8.7 1 13.1 1.1c7.3 .2 14.6 0 22 0c8.1 0 14.2 5.7 14.9 13.8c.7 7.6-4.5 14.3-12.1 15.8c-.7 .1-1.4 .2-2.1 .2c-8.5 0-17 .2-25.6 0c-20.7-.5-39.9-6.3-57.3-17.6c-20.9-13.5-35.6-32-44.3-55.3c-.3-.9-.8-1.1-1.6-1.1c-2.6 0-5.3 .1-7.9-.3c-7.1-1.2-12.1-7.6-12-15c.1-7.1 5.6-13.2 12.7-14.2C118 343 119 343 119 343zM112 96.2c-10.6 0-21.2 0-31.8 0c-8 0-14.5-5.3-16-13.2c-1.9-9.6 5.6-18.9 15.3-18.9c21.6-.1 43.2 0 64.8 0c8.3 0 15.3 6.9 15.7 15.3c.4 8.3-5.8 15.7-14 16.6c-.9 .1-1.8 .2-2.6 .2C133 96.2 123 96.2 112 96.2zM112 160c-10.6 0-21.2 0-31.8 0c-8 0-14.4-5.4-15.9-13.2c-1.9-9.6 5.8-18.8 15.5-18.8c21.4 0 42.8 0 64.3 0c6.7 0 11.6 3.2 14.4 9.2c2.9 6 2 11.9-2.2 17c-3.2 3.9-7.5 5.8-12.5 5.8C133 160 123 160 112 160z"/></svg>