<svg xmlns="http://www.w3.org/2000/svg" viewBox="0 0 482 512"><path d="M482 346c-.2 1.2-.3 2.4-.7 3.5c-1 2.8-1.9 5.8-3.4 8.4c-9.9 17.4-19.9 34.6-29.9 51.9c-5.9 10.3-18.7 10.7-25.7 3.5c-4.9-5-5.9-12.8-2.3-19c6.7-11.6 13.4-23.3 20.1-34.9c2.9-5.1 5.8-10.1 8.7-15.2c.4-.7 .8-1.4 1.2-2.3c-.6-.6-1.2-1.2-1.9-1.8c-16.2-14.8-32.5-29.6-48.8-44.4c-1.5-1.3-1.8-2.6-1.6-4.5c1.6-11.4 3.3-22.8 3.3-34.3c0-9.7-1-19.3-2.3-28.9c-.4-2.7-.7-5.4-1.1-8.1c-.2-1.3 .4-2 1.2-2.9c16.2-14.7 32.4-29.5 48.6-44.2c.8-.7 1.6-1.5 2.6-2.4c-10-17.4-20-34.7-30.1-52.2c-.8 .2-1.5 .3-2.1 .5c-21.1 6.7-42.3 13.5-63.4 20.3c-1.8 .6-3 .4-4.5-.8c-6.6-5.1-13.1-10.2-19.9-15c-8.3-5.8-17.3-10.3-26.6-14.2c-5.1-2.1-10.1-4.4-15.2-6.5c-1.3-.5-1.8-1.4-2-2.6c-4.8-21.8-9.5-43.5-14.3-65.3c-.2-.8-.4-1.5-.6-2.3c-20.1 0-40 0-60.2 0c-.8 3.8-1.7 7.5-2.5 11.2c-4.1 18.8-8.3 37.6-12.4 56.4c-.3 1.4-1 2.2-2.3 2.7c-7.3 3-14.6 6-21.8 9.3c-10.1 4.7-19.5 10.6-28.3 17.4c-3.9 3-7.9 6-11.7 9.1c-1.2 1-2.2 1.1-3.7 .7c-20.7-6.6-41.3-13.2-62-19.8c-1.2-.4-2.4-.8-3.9-1.2c-10 17.4-20 34.7-30.1 52.1c.5 .5 1 1.1 1.5 1.5c16.4 15 32.8 29.9 49.3 44.8c1.4 1.3 1.7 2.4 1.5 4.2c-1.4 10-3 20.1-3.2 30.2c-.3 10.9 .6 21.7 2.1 32.5c.4 2.8 .7 5.5 1.2 8.3c.3 1.5-.2 2.5-1.4 3.5c-15.8 14.3-31.6 28.7-47.4 43.1c-1.2 1.1-2.3 2.2-3.7 3.4c10 17.4 20 34.7 30.1 52.2c1.1-.3 2.1-.6 3-.9c20.8-6.6 41.5-13.2 62.3-19.9c1.9-.6 3.2-.4 4.8 .8c6.3 4.9 12.6 9.8 19.1 14.4c8.5 6 17.8 10.6 27.6 14.3c5.3 2 10.3 4.7 15.5 7.1c1 .5 1.2 1.3 1.4 2.3c2.5 11.5 5.1 23.1 7.6 34.6c2.3 10.4 4.5 20.7 6.8 31.1c.1 .5 .3 1.1 .5 1.9c.9 0 1.8 .1 2.7 .1c18.5 0 37.1 0 55.6 0c1.9 0 3.9 .2 5.7 .7c7.1 1.9 11.4 8 11.2 15.7c-.1 7.4-4.7 13.3-11.7 15.1c-1.8 .4-3.6 .7-5.4 .7c-19.3 0-38.7 0-58 0c-15.2 0-28.1-10.4-31.4-25.3c-3.7-16.8-7.4-33.5-11-50.3c-.4-2-1.2-3.1-3.2-3.9c-14.2-6-27.4-13.7-39.7-23c-1.3-1-2.4-1.2-3.9-.7c-16.3 5.3-32.7 10.5-49 15.7c-13.6 4.3-27.7 0-36-11.1c-.9-1.1-1.6-2.4-2.4-3.6c-10-17.2-19.9-34.4-29.8-51.7c-1.9-3.3-3.2-6.8-3.9-10.5c-.1-.8-.6-1.5-.9-2.2c0-2.4 0-4.8 0-7.2c.3-.8 .7-1.6 .9-2.4c1.4-7 4.7-12.8 9.9-17.6c5.8-5.3 11.7-10.7 17.5-16c7.1-6.5 14.1-12.9 21.2-19.4c1.1-1 1.6-1.9 1.3-3.3c-.1-.4-.1-.8-.1-1.2c-1.3-11-1.7-22.1-1-33.2c.3-4 .6-8 1.1-11.9c.2-1.7 0-3.1-1.5-4.1c-.5-.3-.8-.7-1.2-1.1c-12.4-11.3-24.8-22.6-37.2-33.9c-5.3-4.8-8.6-10.8-10-17.8c-.2-.8-.6-1.6-.9-2.5c0-2.4 0-4.8 0-7.2c.3-.6 .7-1.2 .9-1.9c.7-4.1 2.3-7.8 4.4-11.3c9.8-16.9 19.6-33.7 29.2-50.6C42 89.1 58 82.6 72.9 87.5c16.4 5.4 32.8 10.5 49.3 15.8c1.5 .5 2.5 .3 3.7-.6c9-6.9 18.6-12.9 28.8-18c3.9-2 7.9-3.8 11.9-5.6c1-.5 1.7-1 1.8-2.2c0-.6 .3-1.2 .4-1.9c3.7-16.7 7.1-33.4 11.1-50c3.1-13 11.5-21 24.5-24.1c1.5-.4 3.1-.6 4.7-.9c21.4 0 42.8 0 64.3 0c1.2 .2 2.3 .4 3.5 .6c12.5 2.1 22.9 11.7 25.7 24.1c3.8 16.8 7.5 33.7 11.1 50.5c.5 2.3 1.4 3.6 3.7 4.6c13 5.8 25.4 12.7 37 21c1.4 1 2.7 2.5 4.1 2.7c1.5 .2 3.2-.7 4.8-1.2c15.6-5 31.2-10 46.8-14.9c14.5-4.6 29.8 1 37.4 13.9c10.4 17.7 20.6 35.5 30.7 53.3c1.4 2.5 2.2 5.3 3.1 8c.4 1 .5 2.1 .7 3.2c0 2.9 0 5.8 0 8.6c-.3 1.2-.5 2.4-.8 3.7c-1.6 6.2-4.8 11.4-9.5 15.8c-12.6 11.5-25.3 23-38 34.5c-1.7 1.5-2.2 2.9-2 5.1c.6 5 1.1 10 1.3 15c.4 10.1 .1 20.3-1.3 30.4c-.2 1.7 .2 2.8 1.5 3.9c2.9 2.5 5.7 5.1 8.5 7.7c10 9.1 20 18.2 29.9 27.3c4.7 4.3 7.9 9.5 9.5 15.8c.3 1.3 .6 2.6 .8 3.9C482 340 482 343 482 346zM244 262c2.7-6.1 5.2-11.9 7.8-17.6c.5-1.2 .1-2-.5-2.9c-3.8-6.6-7.5-13.2-11.2-19.8c-8.1-14.3-16.2-28.6-24.4-42.9c-2.2-3.9-3-7.9-1.9-12.2c1.6-6.4 6.7-10.8 13.7-11.6c29.7-3.6 56.5 3.6 79.7 22.6c20.3 16.7 32.4 38.4 36.3 64.4c3.3 21.8-.3 42.6-10.3 62.3c-.2 .4-.4 .9-.7 1.4c.5 .9 .9 1.8 1.5 2.7c11 19.4 22.1 38.9 33.1 58.3c2.6 4.6 3.2 9.4 1.1 14.2c-2.5 5.8-7 9-13.4 9.4c-6 .4-10.7-2.1-14-7.2c-1.8-2.8-3.4-5.8-5-8.7c-11.4-20.1-22.7-40.2-34.2-60.2c-3.5-6.2-3.4-12.1 .4-18c8.3-12.9 12.2-27 11.5-42.3c-1.5-32.1-24.1-60.1-56.5-67.2c-.4-.1-.8-.1-1.4-.2c.5 .9 .8 1.6 1.2 2.3c8.4 14.9 16.8 29.8 25.3 44.6c3.1 5.3 3.4 10.6 .9 16.2c-5.1 11.3-9.9 22.7-14.9 34c-3.6 8.3-9.3 11.5-18.3 10.3c-12.5-1.6-25-3.2-37.6-4.8c-5.6-.7-9.7-3.5-12.4-8.3c-8.5-15-17-30-25.5-45c-.4-.7-.9-1.5-1.5-2.5c-1.6 4-2.5 7.7-3.1 11.4c-6.3 36.4 15.6 71.6 51 81.9c7.3 2.1 14.8 3.1 22.5 2.8c7.1-.3 12.3 2.6 15.8 8.8c12.7 22.5 25.5 45 38.3 67.5c2.3 4 3.2 8.2 2 12.6c-1.9 6.5-6.2 10.4-12.9 11.3c-6.5 .9-11.6-1.7-15.1-7.1c-1.7-2.7-3.2-5.5-4.8-8.3c-9.6-16.9-19.2-33.8-28.7-50.6c-1.8-3.2-1.8-3.2-5.5-3.5c-12.9-1-25.2-4.3-36.7-10.1c-29.7-15.1-48.5-38.9-55.5-71.4c-6.8-31.6 .7-60.3 20.5-85.8c5.6-7.2 15-8.4 21.9-3.2c2 1.5 3.4 3.5 4.7 5.7c10.3 18.3 20.7 36.5 31.1 54.8c1.5 2.6 3 5.3 4.5 7.9c.3 .6 .9 1.3 1.5 1.3C231 260 238 261 244 262z"/></svg>