<?xml version="1.0" encoding="utf-8"?>
<!-- Generator: Adobe Illustrator 26.5.0, SVG Export Plug-In . SVG Version: 6.00 Build 0)  -->
<svg version="1.1" id="crm_app" xmlns="http://www.w3.org/2000/svg" xmlns:xlink="http://www.w3.org/1999/xlink" x="0px" y="0px"
	 viewBox="0 0 121.2 73.3" style="enable-background:new 0 0 121.2 73.3;" xml:space="preserve">
<style type="text/css">
	.st0{fill:url(#SVGID_1_);}
	.st1{fill:url(#SVGID_00000007409955462938408870000013415352944592281238_);}
	.st2{fill:url(#SVGID_00000178204460985258309150000011480147122363824785_);}
</style>
<linearGradient id="SVGID_1_" gradientUnits="userSpaceOnUse" x1="-11.3" y1="100.8951" x2="112.73" y2="100.8951" gradientTransform="matrix(1 0 0 -1 0 137.53)">
	<stop  offset="0" style="stop-color:#9460A4"/>
	<stop  offset="0.68" style="stop-color:#449BAD"/>
	<stop  offset="1" style="stop-color:#25B4B1"/>
</linearGradient>
<path class="st0" d="M57.4,29.3l5.7,5.2c7.8,7.1,16.6,2.3,19.4-0.8c5.1-5.6,4.7-14.3-0.8-19.4L66.1,0h1.3c11,0,21.6,4.4,29.4,12.2
	l18.4,0.1c3.4,0,6.1,2.8,6.1,6.1v30.5c0,3.4-2.8,6.1-5.9,6.1H93.5L76.2,70.5C71,74.8,63.3,74,59.1,68.8l-3.5,2.9c-3,2.3-7.5,2-10-1
	l-6-7.4l-1,0.9c-2.6,2.1-6.5,1.7-8.6-0.9L28.2,61c-2.1-2.6-1.7-6.4,0.9-8.6L57.4,29.3L57.4,29.3z"/>
<linearGradient id="SVGID_00000085226733724703621070000014710830127744956308_" gradientUnits="userSpaceOnUse" x1="-11.3" y1="110.095" x2="112.73" y2="110.095" gradientTransform="matrix(1 0 0 -1 0 137.53)">
	<stop  offset="0" style="stop-color:#9460A4"/>
	<stop  offset="0.29" style="stop-color:#7775A7"/>
	<stop  offset="0.91" style="stop-color:#2FACAF"/>
	<stop  offset="1" style="stop-color:#25B4B1"/>
</linearGradient>
<path style="fill:url(#SVGID_00000085226733724703621070000014710830127744956308_);" d="M6.1,12.2l18.3,0C32.2,4.4,42.8,0,53.9,0
	l1.6,0c1.5,0,3,0.6,4.1,1.6l18.8,17.1l0,0.1c3.2,3,3.1,7.8,0.4,10.7c-1.8,2-6.7,4.1-10.7,0.5c0,0-0.1,0-0.1,0L52.8,16
	c-1.2-1.1-3.2-1-4.3,0.2s-1.1,3.2,0.2,4.3l5,4.5L25.9,47.6c-2.3,1.9-3.7,4.5-4.2,7.2H6.1c-3.4,0-6.1-2.7-6.1-6.1V18.3
	C0,14.9,2.7,12.2,6.1,12.2L6.1,12.2z"/>
<linearGradient id="SVGID_00000076578109285138436900000006956145821384602783_" gradientUnits="userSpaceOnUse" x1="-54.45" y1="100.8951" x2="142.77" y2="100.8951" gradientTransform="matrix(1 0 0 -1 0 137.53)">
	<stop  offset="0" style="stop-color:#3A3A3A"/>
	<stop  offset="1" style="stop-color:#3A3A3A;stop-opacity:0"/>
</linearGradient>
<path style="fill:url(#SVGID_00000076578109285138436900000006956145821384602783_);" d="M57.4,29.3l5.7,5.2
	c7.8,7.1,16.6,2.3,19.4-0.8c5.1-5.6,4.7-14.3-0.8-19.4L66.1,0h1.3c11,0,21.6,4.4,29.4,12.2l18.4,0.1c3.4,0,6.1,2.8,6.1,6.1v30.5
	c0,3.4-2.8,6.1-5.9,6.1H93.5L76.2,70.5C71,74.8,63.3,74,59.1,68.8l-3.5,2.9c-3,2.3-7.5,2-10-1l-6-7.4l-1,0.9
	c-2.6,2.1-6.5,1.7-8.6-0.9L28.2,61c-2.1-2.6-1.7-6.4,0.9-8.6L57.4,29.3L57.4,29.3z"/>
</svg>
